<svg width="24" height="24" viewBox="0 0 24 24" fill="none" xmlns="http://www.w3.org/2000/svg">
<g clip-path="url(#clip0_5_21699)">
<path d="M23.0001 10.9996C22.7348 10.9996 22.4805 10.8942 22.2929 10.7067C22.1054 10.5191 22.0001 10.2648 22.0001 9.99958C21.9979 7.8785 21.1544 5.84489 19.6546 4.34506C18.1547 2.84523 16.1211 2.0017 14.0001 1.99958C13.7348 1.99958 13.4805 1.89422 13.2929 1.70668C13.1054 1.51915 13.0001 1.26479 13.0001 0.999578C13.0001 0.734361 13.1054 0.480007 13.2929 0.292471C13.4805 0.104935 13.7348 -0.000422341 14.0001 -0.000422341C16.6513 0.00248926 19.1932 1.05699 21.0679 2.93173C22.9426 4.80646 23.9971 7.34831 24.0001 9.99958C24.0001 10.2648 23.8947 10.5191 23.7072 10.7067C23.5196 10.8942 23.2653 10.9996 23.0001 10.9996ZM20.0001 9.99958C20.0001 8.40828 19.3679 6.88216 18.2427 5.75694C17.1175 4.63172 15.5914 3.99958 14.0001 3.99958C13.7348 3.99958 13.4805 4.10494 13.2929 4.29247C13.1054 4.48001 13.0001 4.73436 13.0001 4.99958C13.0001 5.26479 13.1054 5.51915 13.2929 5.70668C13.4805 5.89422 13.7348 5.99958 14.0001 5.99958C15.0609 5.99958 16.0783 6.42101 16.8285 7.17115C17.5786 7.9213 18.0001 8.93871 18.0001 9.99958C18.0001 10.2648 18.1054 10.5191 18.2929 10.7067C18.4805 10.8942 18.7348 10.9996 19.0001 10.9996C19.2653 10.9996 19.5196 10.8942 19.7072 10.7067C19.8947 10.5191 20.0001 10.2648 20.0001 9.99958ZM22.1831 22.1636L23.0931 21.1146C23.6723 20.5335 23.9975 19.7465 23.9975 18.9261C23.9975 18.1056 23.6723 17.3187 23.0931 16.7376C23.0621 16.7066 20.6561 14.8556 20.6561 14.8556C20.0786 14.3059 19.3116 13.9998 18.5143 14.001C17.7171 14.0021 16.951 14.3103 16.3751 14.8616L14.4691 16.4676C12.9132 15.8237 11.4999 14.8788 10.3103 13.6871C9.12074 12.4954 8.17827 11.0805 7.53705 9.52358L9.13705 7.62358C9.68877 7.04775 9.99735 6.28145 9.99865 5.48398C9.99996 4.68651 9.69388 3.91921 9.14405 3.34158C9.14405 3.34158 7.29105 0.938578 7.26005 0.907578C6.6895 0.333326 5.91593 0.00659967 5.10648 -0.00200756C4.29702 -0.0106148 3.51668 0.299588 2.93405 0.861578L1.78405 1.86158C-5.00995 9.74358 9.62005 24.2606 17.7621 23.9996C18.5842 24.0043 19.399 23.8443 20.1584 23.529C20.9177 23.2137 21.6061 22.7494 22.1831 22.1636Z" fill="#fff"/>
</g>
<defs>
<clipPath id="clip0_5_21699">
<rect width="24" height="24" fill="white"/>
</clipPath>
</defs>
</svg>
